# xmcd
#
# Track frame offsets: 
#        150
#        16417
#        31852
#        49980
#        66422
#        79217
#        105222
#        121647
#        134620
#        164322
#        178147
#        194947
#        214592
#        228475
#
# Disc length: 3238 seconds
#
# Revision: 1
# Processed by: cddbd v1.5PL3 Copyright (c) Steve Scherf et al.
# Submitted via: ExactAudioCopy v0.95a5
#
DISCID=c40ca40e
DTITLE=Various Artist - Disco Music
DYEAR=2000
DGENRE=Disco
TTITLE0=Three Degrees - TSOP (The Sounds of Philadelphia)
TTITLE1=Tina Charles - Dance little lady dance
TTITLE2=Kc and The Sunshine Band - Give it up
TTITLE3=The Village People - Y.M.C.A.
TTITLE4=Three Degrees - When will I see you again
TTITLE5=Kool and the Gang - Cherish
TTITLE6=Anita Ward - Ring my bell
TTITLE7=The Flirtations - Stop in the name of love
TTITLE8=Sister Sledge - We are Family
TTITLE9=Kc and The Sunshine Band - That's the way I like it
TTITLE10=Tavares - Heaven must be missing an angel
TTITLE11=Gloria Gaynor - I will survive
TTITLE12=Kc and The Sunshine Band - Shake shake shake (Shake your body
TTITLE12=)
TTITLE13=George McRae - Rock your baby
EXTD=
EXTT0=
EXTT1=
EXTT2=
EXTT3=
EXTT4=
EXTT5=
EXTT6=
EXTT7=
EXTT8=
EXTT9=
EXTT10=
EXTT11=
EXTT12=
EXTT13=
PLAYORDER=
